<?xml version="1.0" encoding="UTF-8" standalone="no"?>
<!-- Creator: CorelDRAW X7 -->

<svg
   xmlns:dc="http://purl.org/dc/elements/1.1/"
   xmlns:cc="http://creativecommons.org/ns#"
   xmlns:rdf="http://www.w3.org/1999/02/22-rdf-syntax-ns#"
   xmlns:svg="http://www.w3.org/2000/svg"
   xmlns="http://www.w3.org/2000/svg"
   xmlns:sodipodi="http://sodipodi.sourceforge.net/DTD/sodipodi-0.dtd"
   xmlns:inkscape="http://www.inkscape.org/namespaces/inkscape"
   xml:space="preserve"
   width="42.33mm"
   height="14.11mm"
   version="1.1"
   style="shape-rendering:geometricPrecision; text-rendering:geometricPrecision; image-rendering:optimizeQuality; fill-rule:evenodd; clip-rule:evenodd"
   viewBox="0 0 8724 2908"
   id="svg2"
   inkscape:version="0.91 r"
   sodipodi:docname="logo.svg"><metadata
     id="metadata24"><rdf:RDF><cc:Work
         rdf:about=""><dc:format>image/svg+xml</dc:format><dc:type
           rdf:resource="http://purl.org/dc/dcmitype/StillImage" /><dc:title></dc:title></cc:Work></rdf:RDF></metadata><sodipodi:namedview
     pagecolor="#ffffff"
     bordercolor="#666666"
     borderopacity="1"
     objecttolerance="10"
     gridtolerance="10"
     guidetolerance="10"
     inkscape:pageopacity="0"
     inkscape:pageshadow="2"
     inkscape:window-width="1366"
     inkscape:window-height="716"
     id="namedview22"
     showgrid="false"
     inkscape:zoom="5.0538542"
     inkscape:cx="66.314143"
     inkscape:cy="23.795085"
     inkscape:window-x="0"
     inkscape:window-y="0"
     inkscape:window-maximized="1"
     inkscape:current-layer="svg2" /><defs
     id="defs4"><style
       type="text/css"
       id="style6"><![CDATA[
    .fil0 {fill:#2B2A29}
    .fil1 {fill:#E84F28;fill-rule:nonzero}
   ]]></style></defs><g
     id="Слой_x0020_1"
     transform="matrix(0.93283582,0,0,0.93283582,266.39921,180.30676)"><metadata
       id="CorelCorpID_0Corel-Layer" /><g
       id="_402071152"><g
         id="_376449056"><path
           class="fil0"
           d="m 734,2901 0,-340 -127,0 0,-39 298,0 0,39 -127,0 0,340 -44,0 z m 587,0 0,-379 274,0 0,39 -231,0 0,129 207,0 0,39 -207,0 0,133 234,0 0,39 -277,0 z m 873,7 c -55,0 -100,-19 -136,-57 -37,-38 -55,-84 -55,-140 0,-54 19,-101 55,-139 37,-38 82,-57 137,-57 32,0 59,5 82,16 22,10 44,25 65,45 l -28,31 c -37,-35 -76,-52 -119,-52 -42,0 -77,15 -105,45 -28,30 -42,67 -42,111 0,44 14,82 42,112 28,30 63,45 105,45 24,0 46,-5 65,-14 19,-9 38,-22 57,-41 l 28,30 c -21,21 -43,37 -67,48 -23,11 -52,17 -84,17 z m 562,-7 0,-379 43,0 0,168 219,0 0,-168 43,0 0,379 -43,0 0,-171 -219,0 0,171 -43,0 z m 748,0 0,-379 40,0 239,304 0,-304 42,0 0,379 -34,0 -245,-311 0,311 -42,0 z m 1079,-51 c -36,38 -83,58 -139,58 -56,0 -103,-20 -139,-58 -36,-38 -54,-84 -54,-139 0,-53 18,-100 55,-138 36,-39 83,-58 139,-58 56,0 103,19 139,58 36,38 54,84 54,138 0,54 -18,100 -55,139 z m -245,-28 c 28,31 64,46 107,46 43,0 79,-15 107,-45 28,-30 42,-68 42,-112 0,-43 -15,-80 -43,-111 -28,-30 -64,-45 -107,-45 -43,0 -78,15 -106,45 -28,30 -42,67 -42,111 0,44 14,81 42,111 z m 726,79 0,-379 43,0 0,339 214,0 0,40 -257,0 z m 966,-51 c -37,38 -83,58 -140,58 -56,0 -102,-20 -138,-58 -37,-38 -55,-84 -55,-139 0,-53 19,-100 55,-138 37,-39 83,-58 139,-58 57,0 103,19 139,58 36,38 54,84 54,138 0,54 -18,100 -54,139 z m -246,-28 c 29,31 64,46 107,46 43,0 79,-15 107,-45 28,-30 42,-68 42,-112 0,-43 -14,-80 -43,-111 -28,-30 -64,-45 -107,-45 -43,0 -78,15 -106,45 -28,30 -42,67 -42,111 0,44 14,81 42,111 z m 1055,28 c -43,38 -94,58 -152,58 -58,0 -105,-19 -140,-57 -35,-37 -53,-84 -53,-140 0,-53 18,-99 54,-138 35,-38 81,-58 136,-58 30,0 57,4 78,13 22,8 43,21 64,38 l -28,32 c -33,-29 -72,-43 -116,-43 -41,0 -75,15 -103,46 -27,30 -41,67 -41,110 0,46 14,84 41,114 28,29 64,44 109,44 42,0 79,-13 110,-38 l 0,-94 -116,0 0,-39 157,0 0,152 z m 436,51 0,-379 43,0 0,379 -43,0 z m 490,0 0,-379 274,0 0,39 -231,0 0,129 207,0 0,39 -207,0 0,133 234,0 0,39 -277,0 z m 829,5 c -58,0 -110,-20 -155,-60 l 27,-32 c 20,19 40,32 61,41 20,9 43,13 69,13 25,0 45,-6 61,-18 16,-12 23,-28 23,-48 0,-18 -7,-33 -20,-43 -14,-11 -40,-21 -78,-29 -45,-9 -78,-23 -98,-39 -20,-17 -30,-40 -30,-71 0,-30 12,-55 36,-74 23,-20 53,-30 89,-30 50,0 95,16 133,47 l -25,33 c -33,-28 -70,-41 -109,-41 -24,0 -44,6 -59,17 -14,12 -22,27 -22,45 0,19 7,34 22,45 14,10 41,20 81,29 43,9 74,22 94,39 20,17 30,40 30,69 0,32 -12,58 -37,78 -24,20 -55,29 -93,29 z"
           id="path12"
           inkscape:connector-curvature="0"
           style="fill:#2b2a29" /><path
           class="fil1"
           d="m 2904,1241 0,-448 1033,0 0,448 -1033,0 z m -897,337 0,-1573 448,0 0,1573 1482,0 0,448 -1482,0 -448,0 0,-448 z m 897,-1124 0,-449 1033,0 0,449 -1033,0 z"
           id="path14"
           inkscape:connector-curvature="0"
           style="fill:#e84f28;fill-rule:nonzero" /><polygon
           class="fil0"
           points="8144,872 7630,1659 7619,1659 7107,877 7107,2026 6561,2026 6561,15 7150,15 7630,794 8111,15 8702,15 8702,2026 8144,2026 "
           id="polygon16"
           style="fill:#2b2a29" /><polygon
           class="fil0"
           points="1158,2026 601,2026 601,503 0,503 0,15 1762,15 1762,503 1158,503 "
           id="polygon18"
           style="fill:#2b2a29" /><path
           class="fil0"
           d="M 4123,2026 4980,0 l 538,0 856,2026 -598,0 -147,-359 -776,0 -143,359 -587,0 z m 894,-793 452,0 -225,-572 -227,572 z"
           id="path20"
           inkscape:connector-curvature="0"
           style="fill:#2b2a29" /></g></g></g></svg>